<?xml version="1.0" standalone="no"?>
<!DOCTYPE svg PUBLIC "-//W3C//DTD SVG 20010904//EN"
 "http://www.w3.org/TR/2001/REC-SVG-20010904/DTD/svg10.dtd">
<svg version="1.0" xmlns="http://www.w3.org/2000/svg"
 width="256.000000pt" height="256.000000pt" viewBox="0 0 256.000000 256.000000"
 preserveAspectRatio="xMidYMid meet">

<g transform="translate(0.000000,256.000000) scale(0.100000,-0.100000)"
fill="#000000" stroke="none">
<path d="M125 2481 c-51 -23 -101 -79 -114 -128 -7 -25 -11 -310 -11 -834 l0
-797 28 -53 c20 -39 41 -62 77 -84 l48 -30 318 -3 318 -3 -29 -77 c-15 -42
-31 -84 -35 -93 -5 -13 -24 -18 -81 -21 -54 -4 -83 -11 -102 -25 -92 -69 -94
-190 -3 -250 28 -19 48 -23 112 -23 69 0 78 2 84 20 11 35 -12 50 -75 50 -74
0 -110 25 -110 76 0 21 8 42 20 54 20 20 33 20 710 20 677 0 690 0 710 -20 27
-27 26 -81 -1 -106 -20 -18 -48 -19 -576 -24 -505 -5 -557 -7 -566 -22 -8 -12
-7 -21 2 -32 12 -14 75 -16 576 -16 l562 0 34 23 c91 60 89 181 -3 250 -19 14
-48 21 -102 25 -57 3 -76 8 -81 21 -4 9 -20 51 -35 93 l-29 77 318 3 318 3 48
30 c72 44 105 112 105 214 0 80 -9 101 -42 101 -25 0 -38 -39 -38 -111 0 -71
-19 -112 -63 -139 -31 -19 -59 -20 -1137 -20 -1078 0 -1106 1 -1137 20 -66 40
-63 -4 -63 880 0 901 -5 841 75 880 40 20 66 20 1125 20 1059 0 1085 0 1125
-20 79 -38 75 1 75 -717 0 -351 3 -648 6 -660 7 -27 40 -39 59 -23 13 11 15
106 15 659 0 420 -4 659 -11 684 -13 49 -63 105 -114 128 -38 18 -98 19 -1155
19 -1057 0 -1117 -1 -1155 -19z m1601 -2026 c19 -49 34 -91 34 -92 0 -2 -216
-3 -480 -3 -264 0 -480 1 -480 3 0 1 13 36 28 77 16 41 32 83 35 93 6 16 33
17 418 15 l411 -3 34 -90z"/>
<path d="M251 2312 c-19 -9 -44 -30 -55 -45 -21 -28 -21 -37 -21 -660 0 -586
1 -634 18 -664 9 -18 29 -41 44 -50 25 -17 90 -18 1043 -18 953 0 1018 1 1043
18 15 9 35 32 44 50 17 30 18 78 18 663 l0 631 -28 36 c-17 23 -41 40 -65 47
-25 7 -279 10 -806 8 -719 -3 -770 -4 -780 -20 -8 -13 -8 -23 0 -35 10 -17 61
-18 789 -21 707 -2 780 -4 797 -19 17 -15 18 -49 18 -633 0 -585 -1 -618 -18
-633 -17 -16 -102 -17 -1014 -17 -951 0 -996 1 -1011 18 -15 17 -17 75 -17
634 0 583 1 616 18 631 15 14 42 17 156 17 141 0 176 8 176 38 0 37 -20 42
-170 42 -118 0 -151 -3 -179 -18z"/>
<path d="M512 2158 c-9 -9 -12 -71 -12 -219 0 -169 3 -209 15 -219 10 -8 46
-11 114 -8 90 3 102 5 126 28 67 63 73 158 12 208 -12 11 -13 18 -1 51 22 63
-5 124 -68 157 -34 17 -169 19 -186 2z m176 -80 c17 -17 15 -54 -4 -72 -9 -10
-33 -16 -60 -16 l-44 0 0 50 0 50 48 0 c26 0 53 -5 60 -12z m-1 -168 c37 -13
56 -50 43 -84 -12 -34 -39 -46 -99 -46 l-51 0 0 70 0 70 39 0 c21 0 52 -5 68
-10z"/>
<path d="M911 2156 c-8 -9 -11 -78 -9 -227 l3 -214 91 -3 c74 -2 93 0 104 13
25 30 0 50 -69 53 l-61 3 0 182 c0 182 -4 207 -36 207 -6 0 -17 -6 -23 -14z"/>
<path d="M1277 2156 c-164 -61 -210 -265 -86 -383 138 -130 359 -50 385 140
12 89 -40 188 -119 226 -58 28 -131 35 -180 17z m151 -86 c53 -32 74 -75 69
-143 -3 -49 -8 -62 -37 -92 -66 -68 -154 -69 -219 -4 -76 76 -56 192 44 247
33 18 107 14 143 -8z"/>
<path d="M1800 2161 c-111 -36 -170 -115 -170 -229 0 -48 6 -67 33 -112 85
-143 298 -148 366 -8 24 51 36 127 22 147 -12 19 -116 27 -153 12 -30 -11 -37
-38 -16 -59 7 -7 31 -12 55 -12 50 0 54 -11 20 -61 -31 -47 -85 -66 -139 -49
-116 34 -154 171 -71 255 49 48 116 59 180 28 42 -19 68 -9 68 27 0 43 -127
83 -195 61z"/>
<path d="M383 1574 c-3 -9 -2 -24 4 -33 9 -14 94 -16 899 -19 489 -1 899 0
912 3 18 5 23 11 20 33 l-3 27 -913 3 c-838 2 -913 1 -919 -14z"/>
<path d="M384 1366 c-3 -8 -4 -23 -2 -33 3 -17 44 -18 918 -18 l915 0 0 30 0
30 -913 3 c-789 2 -913 0 -918 -12z"/>
<path d="M392 1158 c-16 -16 -15 -43 2 -57 9 -8 191 -10 661 -9 604 3 649 4
659 21 8 12 8 22 0 35 -10 16 -55 17 -661 20 -496 2 -652 -1 -661 -10z"/>
</g>
</svg>
